<?xml version="1.0" encoding="UTF-8"?>
<svg id="_レイヤー_2" data-name="レイヤー 2" xmlns="http://www.w3.org/2000/svg" viewBox="0 0 16.57 16.57">
  <defs>
    <style>
      .cls-1 {
        fill: #fff;
      }

      .cls-2 {
        fill: #003f73;
      }
    </style>
  </defs>
  <g id="priorityRestroom">
    <g>
      <g>
        <path class="cls-2" d="M1.03,0h14.5c.57,0,1.04.46,1.04,1.04v14.5c0,.57-.46,1.04-1.04,1.04H1.03c-.57,0-1.03-.46-1.03-1.03V1.03C0,.46.46,0,1.03,0Z"/>
        <path class="cls-1" d="M10.5,12.48c-.67,1.47-2.14,2.49-3.84,2.49-2.3,0-4.19-1.87-4.19-4.19,0-1.66.97-3.09,2.39-3.77l.08.95c-.95.58-1.6,1.62-1.6,2.82,0,1.83,1.5,3.32,3.32,3.32,1.7,0,3.09-1.26,3.3-2.88l.54,1.26ZM6,4.18l.25,2.7h2.74v.87h-2.68l.08.81h3.86l1.74,4.11,1.47-.62.31.7-2.2.95-1.83-4.27h-4.17l-.5-5.81c-.08-.14-.13-.31-.13-.47,0-.58.46-1.06,1.04-1.06s1.06.48,1.06,1.06-.47,1.03-1.06,1.03Z"/>
      </g>
      <g>
        <path class="cls-1" d="M14.84,1.31h-4.79c-.24,0-.42.18-.42.4v4.75c0,.22.18.41.42.41h4.79c.23,0,.43-.18.43-.41V1.71c0-.22-.2-.4-.43-.4"/>
        <path class="cls-2" d="M12.42,3.04c.29,0,.53-.24.53-.54s-.24-.53-.53-.53c-.31,0-.55.24-.55.53s.24.54.55.54"/>
        <path class="cls-2" d="M13.07,3.2h-1.32c-.55,0-.82.21-.78.9l.12,1.86h2.63l.12-1.86c.04-.68-.24-.9-.78-.9M13.36,5.28h-.29v.29h-.26v-.29h-.29v-.25h.29v-.29h.26v.29h.29v.25"/>
      </g>
    </g>
  </g>
</svg>